HIERARCHY
ROOT Hips
{
 OFFSET 0.000000 0.000000 0.000000
 CHANNELS 6 Xposition Yposition Zposition Yrotation Xrotation Zrotation
 JOINT Chest
 {
  OFFSET 0.000000 9.585900 0.002600
  CHANNELS 3 Yrotation Xrotation Zrotation
  JOINT Chest2
  {
   OFFSET 0.000000 9.601200 -0.005300
   CHANNELS 3 Yrotation Xrotation Zrotation
   JOINT Chest3
   {
    OFFSET 0.000000 9.561800 0.000000
    CHANNELS 3 Yrotation Xrotation Zrotation
    JOINT Chest4
    {
     OFFSET 0.000000 9.552100 0.000000
     CHANNELS 3 Yrotation Xrotation Zrotation
     JOINT Neck
     {
      OFFSET 0.000000 14.453000 0.000000
      CHANNELS 3 Yrotation Xrotation Zrotation
      JOINT Head
      {
       OFFSET 0.000000 8.936500 -0.011300
       CHANNELS 3 Yrotation Xrotation Zrotation
       End Site
       {
        OFFSET 0.000000 17.073600 -0.006000
       }
      }
     }
     JOINT RightCollar
     {
      OFFSET -2.921100 9.558500 0.000000
      CHANNELS 3 Yrotation Xrotation Zrotation
      JOINT RightShoulder
      {
       OFFSET -13.519700 0.000000 0.000000
       CHANNELS 3 Yrotation Xrotation Zrotation
       JOINT RightElbow
       {
        OFFSET 0.000000 -29.696600 0.000000
        CHANNELS 3 Yrotation Xrotation Zrotation
        JOINT RightWrist
        {
         OFFSET 0.000000 -24.004700 0.000000
         CHANNELS 3 Yrotation Xrotation Zrotation
         End Site
         {
          OFFSET 0.000000 -17.728500 0.000000
         }
        }
       }
      }
     }
     JOINT LeftCollar
     {
      OFFSET 2.921100 9.558500 0.000000
      CHANNELS 3 Yrotation Xrotation Zrotation
      JOINT LeftShoulder
      {
       OFFSET 13.519700 0.000000 0.000000
       CHANNELS 3 Yrotation Xrotation Zrotation
       JOINT LeftElbow
       {
        OFFSET 0.000000 -29.696600 0.000000
        CHANNELS 3 Yrotation Xrotation Zrotation
        JOINT LeftWrist
        {
         OFFSET 0.000000 -24.004700 0.000000
         CHANNELS 3 Yrotation Xrotation Zrotation
         End Site
         {
          OFFSET 0.000000 -17.728500 0.000000
         }
        }
       }
      }
     }
    }
   }
  }
 }
 JOINT RightHip
 {
  OFFSET -7.771700 -0.012900 -0.001300
  CHANNELS 3 Yrotation Xrotation Zrotation
  JOINT RightKnee
  {
   OFFSET 0.000000 -40.869800 0.001200
   CHANNELS 3 Yrotation Xrotation Zrotation
   JOINT RightAnkle
   {
    OFFSET 0.000000 -39.717900 0.002100
    CHANNELS 3 Yrotation Xrotation Zrotation
    JOINT RightToe
    {
     OFFSET 0.000000 -4.965400 11.033500
     CHANNELS 3 Yrotation Xrotation Zrotation
     End Site
     {
      OFFSET 0.000000 -1.423100 5.872300
     }
    }
   }
  }
 }
 JOINT LeftHip
 {
  OFFSET 7.771700 -0.012900 -0.001300
  CHANNELS 3 Yrotation Xrotation Zrotation
  JOINT LeftKnee
  {
   OFFSET 0.000000 -40.869800 0.001200
   CHANNELS 3 Yrotation Xrotation Zrotation
   JOINT LeftAnkle
   {
    OFFSET 0.000000 -39.717900 0.002100
    CHANNELS 3 Yrotation Xrotation Zrotation
    JOINT LeftToe
    {
     OFFSET 0.000000 -4.965400 11.033500
     CHANNELS 3 Yrotation Xrotation Zrotation
     End Site
     {
      OFFSET 0.000000 -1.423100 5.872300
     }
    }
   }
  }
 }
}
MOTION
Frames: 8
Frame Time: 0.008333
-217.363392 57.926468 25.750290 174.250722 -51.142046 -4.025124 5.368309 22.300858 3.259507 2.777512 12.770676 1.609122 3.547089 15.979963 2.126976 2.772400 12.817952 1.618936 1.886187 16.382964 3.482016 2.322574 -5.375876 5.797900 2.498006 2.976569 0.583057 -3.653870 -15.463151 -6.200214 -35.071730 -23.067846 84.181250 -12.553459 -0.296029 -34.994351 -9.940638 -0.180889 0.577215 1.877488 -13.602695 10.359050 28.889654 -26.386131 -80.788252 0.531024 -4.713553 14.649862 4.230363 -21.013276 -0.337526 -37.808963 73.120880 -40.294390 4.862363 -12.883365 10.504933 0.004123 -0.123450 0.008419 -5.671526 -19.887604 9.682227 56.521474 78.589517 55.907223 5.441567 -15.360324 -17.645346 0.068548 0.132280 0.025418
-217.365697 57.927350 25.759750 174.256160 -51.144363 -4.035932 5.363439 22.324589 3.258889 2.769174 12.825430 1.615591 3.556113 15.934814 2.119828 2.770130 12.863811 1.633819 1.903233 16.309865 3.459815 2.503829 -5.509599 5.748467 2.528907 3.011026 0.591604 -3.623838 -15.490623 -6.284716 -35.168443 -23.331366 84.378649 -12.465583 -0.393152 -34.818908 -9.967257 -0.149422 0.536493 1.903836 -13.671307 10.386241 28.959795 -26.323172 -80.911246 0.463706 -4.781350 14.608489 4.225753 -21.012953 -0.334088 -37.762990 73.117101 -40.238528 4.856059 -12.867511 10.498572 0.011147 -0.128272 0.006553 -5.698340 -19.885088 9.692186 56.523822 78.573861 55.885722 5.443983 -15.342183 -17.639777 0.058422 0.131903 0.024463
-217.368156 57.929802 25.767638 174.265969 -51.161958 -4.047607 5.356609 22.362803 3.262311 2.770774 12.823134 1.617917 3.552006 15.976676 2.127878 2.769373 12.880116 1.641337 1.970666 16.238925 3.444366 2.645076 -5.660250 5.689195 2.549832 3.023339 0.595177 -3.587048 -15.485303 -6.371181 -35.282035 -23.647908 84.613427 -12.367996 -0.491875 -34.633915 -9.986719 -0.141219 0.496143 1.914418 -13.637770 10.404889 29.083289 -26.296095 -81.096109 0.374504 -4.852606 14.545387 4.221586 -20.996715 -0.330924 -37.745661 73.115689 -40.215351 4.854768 -12.858405 10.499078 0.012448 -0.132237 0.002834 -5.736160 -19.867424 9.701764 56.546443 78.564816 55.876302 5.448711 -15.321994 -17.637310 0.047804 0.125942 0.024802
-217.367240 57.930951 25.776878 174.254197 -51.172489 -4.062506 5.368335 22.387132 3.286515 2.773906 12.824102 1.619978 3.548535 16.016316 2.138617 2.766058 12.902801 1.649466 2.118405 16.151743 3.434425 2.716694 -5.814965 5.629362 2.567084 3.022856 0.593300 -3.547134 -15.457783 -6.461016 -35.427702 -24.027026 84.892838 -12.276217 -0.574413 -34.440071 -9.999277 -0.150772 0.456697 1.917814 -13.571857 10.423882 29.235041 -26.236725 -81.324636 0.246386 -4.914746 14.450554 4.224902 -20.990176 -0.309207 -37.710746 73.101655 -40.160964 4.854793 -12.834540 10.484815 0.021416 -0.135293 0.004127 -5.747481 -19.855893 9.729867 56.550840 78.562882 55.869985 5.453471 -15.317180 -17.639050 0.042064 0.126803 0.025883
-217.369495 57.931277 25.785723 174.253645 -51.180079 -4.065962 5.355619 22.435839 3.289077 2.780219 12.820602 1.621099 3.539183 16.089966 2.160480 2.768344 12.879643 1.636645 2.155356 16.066453 3.402385 2.904169 -5.979906 5.544044 2.583337 3.022066 0.591084 -3.505719 -15.422038 -6.555980 -35.620000 -24.471310 85.218388 -12.195032 -0.611436 -34.221274 -10.011089 -0.164371 0.414236 1.919101 -13.517793 10.452115 29.408161 -26.108449 -81.592628 0.066151 -4.943740 14.330900 4.229355 -20.985688 -0.309856 -37.692260 73.097298 -40.130055 4.855010 -12.823511 10.480320 0.027279 -0.139180 0.004451 -5.771596 -19.847258 9.740169 56.541698 78.560364 55.835181 5.458154 -15.308748 -17.635547 0.044377 0.126779 0.025246
-217.371040 57.930952 25.794708 174.255622 -51.184415 -4.074661 5.350147 22.462878 3.297213 2.776854 12.840281 1.625496 3.535975 16.133645 2.171892 2.767846 12.884058 1.634638 2.253422 15.973805 3.373436 3.041329 -6.152124 5.460163 2.598886 3.021899 0.592397 -3.462018 -15.376479 -6.653910 -35.869399 -24.973026 85.587721 -12.120978 -0.574355 -33.949570 -10.024396 -0.177085 0.369730 1.912814 -13.451611 10.491610 29.627263 -25.941236 -81.918418 -0.158246 -4.930398 14.194356 4.230508 -20.984747 -0.308604 -37.667770 73.095202 -40.091791 4.855731 -12.814518 10.473291 0.028254 -0.137910 0.003072 -5.813738 -19.843359 9.762489 56.543890 78.567293 55.799071 5.463270 -15.296159 -17.630665 0.041217 0.121277 0.023825
-217.374039 57.931139 25.802426 174.261815 -51.194180 -4.076292 5.338172 22.497604 3.294020 2.775871 12.859875 1.631661 3.533415 16.160806 2.175790 2.766337 12.904815 1.638947 2.355871 15.878391 3.341737 3.183985 -6.329049 5.373000 2.616959 3.024259 0.599595 -3.418179 -15.321275 -6.753197 -36.181175 -25.525223 85.995492 -12.054628 -0.445395 -33.592309 -10.038461 -0.183404 0.324559 1.901199 -13.376262 10.545709 29.891103 -25.750152 -82.305405 -0.411872 -4.893337 14.037992 4.233715 -20.977340 -0.318506 -37.646399 73.097380 -40.058332 4.855839 -12.809857 10.465732 0.033005 -0.138628 0.006387 -5.831787 -19.833527 9.767003 56.484043 78.564790 55.715711 5.464395 -15.281653 -17.619331 0.035340 0.121422 0.021712
-217.376895 57.932015 25.809029 174.264088 -51.209534 -4.074342 5.332623 22.525831 3.290733 2.770949 12.891992 1.637875 3.531936 16.188245 2.180988 2.765391 12.925340 1.642929 2.439914 15.782569 3.307010 3.350601 -6.508947 5.278145 2.638457 3.031955 0.611231 -3.375893 -15.258817 -6.851988 -36.555036 -26.123374 86.436610 -11.999265 -0.228231 -33.124658 -10.055842 -0.180686 0.277918 1.899243 -13.296133 10.611150 30.187119 -25.550256 -82.753886 -0.682851 -4.852052 13.851823 4.240628 -20.964049 -0.327593 -37.637829 73.100243 -40.041210 4.860605 -12.809356 10.462885 0.027728 -0.140256 0.007117 -5.845897 -19.817627 9.768109 56.467059 78.562044 55.679487 5.457430 -15.275753 -17.615498 0.034905 0.120543 0.022828
